<svg width="211" height="115" viewBox="0 0 211 115" fill="none" xmlns="http://www.w3.org/2000/svg">
<rect width="211" height="115" fill="#3978A6"/>
<path d="M15.8594 62V17.6364H35.0952C38.4744 17.6364 41.3121 18.0913 43.6083 19.0011C45.9189 19.9109 47.6591 21.1961 48.8288 22.8569C50.013 24.5176 50.6051 26.4744 50.6051 28.7273C50.6051 30.3591 50.2441 31.8466 49.522 33.1896C48.8144 34.5327 47.8179 35.6591 46.5327 36.5689C45.2474 37.4643 43.7455 38.0852 42.027 38.4318V38.8651C43.9332 38.9373 45.6662 39.421 47.2259 40.3164C48.7855 41.1973 50.0275 42.4176 50.9517 43.9773C51.8759 45.5225 52.3381 47.3421 52.3381 49.4361C52.3381 51.8622 51.7027 54.0212 50.4318 55.913C49.1754 57.8048 47.3847 59.2923 45.0597 60.3754C42.7346 61.4585 39.9619 62 36.7415 62H15.8594ZM27.9034 52.3821H33.5355C35.5573 52.3821 37.0736 52.0066 38.0845 51.2557C39.0954 50.4903 39.6009 49.3639 39.6009 47.8764C39.6009 46.8366 39.3626 45.9557 38.886 45.2337C38.4094 44.5116 37.7307 43.9628 36.8498 43.5874C35.9833 43.2119 34.9363 43.0241 33.7088 43.0241H27.9034V52.3821ZM27.9034 35.5724H32.8423C33.8965 35.5724 34.828 35.4064 35.6367 35.0742C36.4454 34.7421 37.0736 34.2655 37.5213 33.6445C37.9834 33.0091 38.2145 32.2365 38.2145 31.3267C38.2145 29.9548 37.7235 28.9078 36.7415 28.1857C35.7595 27.4492 34.5175 27.081 33.0156 27.081H27.9034V35.5724ZM68.1296 62H55.1325L69.7759 17.6364H86.239L100.882 62H87.8853L78.1808 29.8537H77.8342L68.1296 62ZM65.7035 44.4972H90.1381V53.5085H65.7035V44.4972ZM143.54 17.6364V62H133.489L117.459 38.6918H117.199V62H105.155V17.6364H115.38L131.15 40.858H131.496V17.6364H143.54ZM149.237 62V17.6364H161.281V35.5724H161.888L175.232 17.6364H189.269L174.278 37.392L189.615 62H175.232L165.267 45.3636L161.281 50.5625V62H149.237ZM14.2074 82.5831V78.2727H34.5156V82.5831H26.9453V103H21.7777V82.5831H14.2074ZM37.8601 103V78.2727H47.6158C49.4832 78.2727 51.0769 78.6068 52.397 79.2749C53.7251 79.9349 54.7353 80.8726 55.4276 82.0881C56.1278 83.2955 56.478 84.7161 56.478 86.3501C56.478 87.9922 56.1238 89.4048 55.4155 90.5881C54.7072 91.7633 53.6809 92.6648 52.3366 93.2926C51.0005 93.9205 49.3826 94.2344 47.483 94.2344H40.951V90.0327H46.6378C47.6359 90.0327 48.465 89.8958 49.125 89.6222C49.785 89.3485 50.276 88.938 50.598 88.3906C50.928 87.8433 51.093 87.1631 51.093 86.3501C51.093 85.5291 50.928 84.8369 50.598 84.2734C50.276 83.71 49.781 83.2834 49.1129 82.9936C48.4529 82.6958 47.6198 82.5469 46.6136 82.5469H43.0881V103H37.8601ZM51.2138 91.7472L57.3594 103H51.5881L45.5753 91.7472H51.2138ZM64.4347 103H58.8324L67.3686 78.2727H74.1058L82.63 103H77.0277L70.8338 83.9233H70.6406L64.4347 103ZM64.0845 93.2805H77.3175V97.3615H64.0845V93.2805ZM106.289 78.2727V103H101.773L91.0153 87.4368H90.8342V103H85.6062V78.2727H90.1942L100.868 93.8239H101.085V78.2727H106.289ZM124.022 85.3842C123.926 84.4103 123.511 83.6536 122.779 83.1143C122.046 82.575 121.052 82.3054 119.796 82.3054C118.943 82.3054 118.223 82.4261 117.635 82.6676C117.048 82.901 116.597 83.227 116.283 83.6456C115.977 84.0642 115.824 84.5391 115.824 85.0703C115.808 85.513 115.901 85.8994 116.102 86.2294C116.311 86.5594 116.597 86.8452 116.959 87.0866C117.321 87.3201 117.74 87.5253 118.215 87.7024C118.69 87.8714 119.197 88.0163 119.736 88.1371L121.958 88.6683C123.036 88.9098 124.026 89.2318 124.928 89.6342C125.829 90.0367 126.61 90.5317 127.27 91.1193C127.93 91.7069 128.441 92.3991 128.803 93.196C129.174 93.9929 129.363 94.9065 129.371 95.9368C129.363 97.45 128.977 98.7621 128.212 99.8729C127.455 100.976 126.361 101.833 124.928 102.445C123.503 103.048 121.785 103.35 119.772 103.35C117.776 103.35 116.037 103.044 114.556 102.433C113.083 101.821 111.932 100.915 111.103 99.7159C110.282 98.5085 109.852 97.0154 109.811 95.2365H114.87C114.927 96.0656 115.164 96.7578 115.583 97.3132C116.009 97.8606 116.577 98.2751 117.285 98.5568C118.001 98.8305 118.81 98.9673 119.712 98.9673C120.597 98.9673 121.366 98.8385 122.018 98.581C122.678 98.3234 123.189 97.9652 123.551 97.5064C123.914 97.0476 124.095 96.5204 124.095 95.9247C124.095 95.3693 123.93 94.9025 123.6 94.5241C123.278 94.1458 122.803 93.8239 122.175 93.5582C121.555 93.2926 120.794 93.0511 119.893 92.8338L117.2 92.1577C115.116 91.6506 113.47 90.8577 112.262 89.7791C111.055 88.7005 110.455 87.2476 110.463 85.4205C110.455 83.9233 110.854 82.6153 111.659 81.4964C112.472 80.3776 113.586 79.5043 115.003 78.8764C116.42 78.2486 118.03 77.9347 119.833 77.9347C121.668 77.9347 123.27 78.2486 124.638 78.8764C126.014 79.5043 127.085 80.3776 127.85 81.4964C128.614 82.6153 129.009 83.9112 129.033 85.3842H124.022ZM132.887 103V78.2727H149.26V82.5831H138.115V88.4751H148.173V92.7855H138.115V103H132.887ZM152.776 103V78.2727H169.438V82.5831H158.004V88.4751H168.581V92.7855H158.004V98.6896H169.486V103H152.776ZM173.594 103V78.2727H183.35C185.218 78.2727 186.811 78.6068 188.131 79.2749C189.46 79.9349 190.47 80.8726 191.162 82.0881C191.862 83.2955 192.212 84.7161 192.212 86.3501C192.212 87.9922 191.858 89.4048 191.15 90.5881C190.442 91.7633 189.415 92.6648 188.071 93.2926C186.735 93.9205 185.117 94.2344 183.217 94.2344H176.685V90.0327H182.372C183.37 90.0327 184.199 89.8958 184.859 89.6222C185.519 89.3485 186.01 88.938 186.332 88.3906C186.662 87.8433 186.827 87.1631 186.827 86.3501C186.827 85.5291 186.662 84.8369 186.332 84.2734C186.01 83.71 185.515 83.2834 184.847 82.9936C184.187 82.6958 183.354 82.5469 182.348 82.5469H178.822V103H173.594ZM186.948 91.7472L193.094 103H187.322L181.31 91.7472H186.948Z" fill="white"/>
</svg>
