<svg width="211" height="115" viewBox="0 0 211 115" fill="none" xmlns="http://www.w3.org/2000/svg">
<rect width="211" height="115" fill="#39A644"/>
<path d="M74.2614 54.2727H59.8409C59.7386 53.0795 59.4659 51.9972 59.0227 51.0256C58.5966 50.054 58 49.2187 57.233 48.5199C56.483 47.804 55.571 47.2585 54.4972 46.8835C53.4233 46.4915 52.2045 46.2955 50.8409 46.2955C48.4545 46.2955 46.4347 46.875 44.7812 48.0341C43.1449 49.1932 41.9006 50.8551 41.0483 53.0199C40.2131 55.1847 39.7955 57.7841 39.7955 60.8182C39.7955 64.0227 40.2216 66.7074 41.0739 68.8722C41.9432 71.0199 43.196 72.6392 44.8324 73.7301C46.4688 74.804 48.4375 75.3409 50.7386 75.3409C52.0511 75.3409 53.2273 75.179 54.267 74.8551C55.3068 74.5142 56.2102 74.0284 56.9773 73.3977C57.7443 72.767 58.3665 72.0085 58.8438 71.1222C59.3381 70.2187 59.6705 69.2045 59.8409 68.0795L74.2614 68.1818C74.0909 70.3977 73.4688 72.6562 72.3949 74.9574C71.321 77.2415 69.7955 79.3551 67.8182 81.2983C65.858 83.2244 63.429 84.7756 60.5312 85.9517C57.6335 87.1278 54.267 87.7159 50.4318 87.7159C45.625 87.7159 41.3125 86.6847 37.4943 84.6222C33.6932 82.5597 30.6847 79.5256 28.4688 75.5199C26.2699 71.5142 25.1705 66.6136 25.1705 60.8182C25.1705 54.9886 26.2955 50.0795 28.5455 46.0909C30.7955 42.0852 33.8295 39.0597 37.6477 37.0142C41.4659 34.9517 45.7273 33.9205 50.4318 33.9205C53.7386 33.9205 56.7813 34.3722 59.5597 35.2756C62.3381 36.179 64.7756 37.5 66.8722 39.2386C68.9688 40.9602 70.6563 43.0824 71.9347 45.6051C73.2131 48.1278 73.9886 51.017 74.2614 54.2727ZM131.438 60.8182C131.438 66.6477 130.305 71.5653 128.038 75.571C125.771 79.5597 122.711 82.5852 118.859 84.6477C115.006 86.6932 110.711 87.7159 105.972 87.7159C101.2 87.7159 96.8871 86.6847 93.0348 84.6222C89.1996 82.5426 86.1484 79.5085 83.8814 75.5199C81.6314 71.5142 80.5064 66.6136 80.5064 60.8182C80.5064 54.9886 81.6314 50.0795 83.8814 46.0909C86.1484 42.0852 89.1996 39.0597 93.0348 37.0142C96.8871 34.9517 101.2 33.9205 105.972 33.9205C110.711 33.9205 115.006 34.9517 118.859 37.0142C122.711 39.0597 125.771 42.0852 128.038 46.0909C130.305 50.0795 131.438 54.9886 131.438 60.8182ZM116.813 60.8182C116.813 57.6818 116.396 55.0398 115.56 52.892C114.742 50.7273 113.523 49.0909 111.904 47.983C110.302 46.858 108.325 46.2955 105.972 46.2955C103.62 46.2955 101.634 46.858 100.015 47.983C98.4126 49.0909 97.1939 50.7273 96.3587 52.892C95.5405 55.0398 95.1314 57.6818 95.1314 60.8182C95.1314 63.9545 95.5405 66.6051 96.3587 68.7699C97.1939 70.9176 98.4126 72.554 100.015 73.679C101.634 74.7869 103.62 75.3409 105.972 75.3409C108.325 75.3409 110.302 74.7869 111.904 73.679C113.523 72.554 114.742 70.9176 115.56 68.7699C116.396 66.6051 116.813 63.9545 116.813 60.8182ZM158.163 87H138.016V34.6364H157.959C163.345 34.6364 167.999 35.6847 171.919 37.7812C175.857 39.8608 178.891 42.8608 181.021 46.7812C183.169 50.6847 184.243 55.3636 184.243 60.8182C184.243 66.2727 183.178 70.9602 181.047 74.8807C178.916 78.7841 175.899 81.7841 171.996 83.8807C168.092 85.9602 163.482 87 158.163 87ZM152.232 74.9318H157.652C160.243 74.9318 162.45 74.5142 164.274 73.679C166.115 72.8437 167.513 71.4034 168.467 69.358C169.439 67.3125 169.925 64.4659 169.925 60.8182C169.925 57.1705 169.43 54.3239 168.442 52.2784C167.47 50.233 166.038 48.7926 164.146 47.9574C162.271 47.1222 159.97 46.7045 157.243 46.7045H152.232V74.9318Z" fill="white"/>
</svg>
